<svg width="55" height="55" viewBox="0 0 55 55" fill="none" xmlns="http://www.w3.org/2000/svg">
<g clip-path="url(#clip0_1035_2113)">
<path d="M39.8521 18.6244C43.2173 23.1333 43.2173 31.8669 39.8521 36.3757M47.4258 9.74882C57.4939 19.4055 57.5545 35.6581 47.4258 45.2513M4.50781 35.0038V19.9938C4.50781 18.5382 5.63883 17.3565 7.0324 17.3565H16.0856C16.4197 17.3553 16.7501 17.2862 17.0568 17.1532C17.3636 17.0203 17.6404 16.8263 17.8705 16.5831L25.4442 7.99144C27.0347 6.3279 29.7537 7.50709 29.7537 9.85786V45.1423C29.7537 47.5108 27.0019 48.6799 25.4215 46.9834L17.873 38.4399C17.6422 38.1897 17.3626 37.9899 17.0517 37.8529C16.7407 37.7159 16.405 37.6447 16.0654 37.6437H7.0324C5.63883 37.6437 4.50781 36.4619 4.50781 35.0038Z" stroke="white" stroke-width="2" stroke-linecap="round" stroke-linejoin="round"/>
</g>
<defs>
<clipPath id="clip0_1035_2113">
<rect width="55" height="55" fill="white"/>
</clipPath>
</defs>
</svg>
