<svg width="80" height="80" viewBox="0 0 80 80" fill="none" xmlns="http://www.w3.org/2000/svg">
<path d="M24.5297 3.31738V5.81738H27.3422V3.31738H24.5297ZM52.6547 3.31738V5.81738H55.4672V3.31738H52.6547ZM23.9047 8.62957V18.3174H56.0922V8.62957H23.9047ZM23.2969 21.1296C19.1458 21.96 14.9947 22.7899 10.8438 23.6205L11.3955 26.378L13.5922 25.9386V38.4733H16.4047V25.3761L24.5297 23.7511V30.8174H27.3422V21.1296H23.2969ZM52.6547 21.1296V30.8174H55.4672V23.7511L63.5922 25.3761V38.4733H66.4047V25.9386L68.6014 26.378L69.153 23.6205C65.0021 22.7901 60.8512 21.9598 56.7002 21.1296H52.6547ZM25.4672 33.6296L19.2166 38.3174H60.7803L54.5297 33.6296H25.4672ZM14.5553 41.1296L33.0495 54.0755C27.2109 58.3577 21.3714 62.6388 15.5331 66.9213L17.1959 69.1891L20.1245 67.0414L18.8733 70.295L13.0402 74.3779L14.653 76.6818L39.9984 58.9396C48.4469 64.8538 56.8956 70.7674 65.3438 76.6818L66.9567 74.3779L61.1236 70.295L59.8723 67.0414L62.8009 69.1891L64.4637 66.9213C58.625 62.6392 52.7862 58.3573 46.9473 54.0755L65.4416 41.1296H60.538L44.5525 52.3196L42.3764 50.7235L55.4589 41.1297H50.7031L39.9984 48.9796L29.2938 41.1296H24.538L37.6205 50.7233L35.4444 52.3194L19.4589 41.1294L14.5553 41.1296ZM39.9984 52.4672L42.1194 54.0227L39.9984 55.5074L37.8775 54.0227L39.9984 52.4672ZM35.4828 55.7786L37.5467 57.2233L22.9959 67.4089L24.3209 63.9641L35.4828 55.7786ZM44.5141 55.7786L55.6759 63.9641L57.0009 67.4089L42.4502 57.2236L44.5141 55.7786Z" fill="white"/>
</svg>
