<svg width="43" height="42" viewBox="0 0 43 42" fill="none" xmlns="http://www.w3.org/2000/svg">
<path d="M32 19.25C32 17.5717 30.81 16.1682 29.2333 15.8305C29.8633 14.7787 30.25 13.5625 30.25 12.25C30.25 8.3895 27.1105 5.25 23.25 5.25C20.5952 5.25 18.3132 6.74975 17.125 8.932C15.9368 6.74975 13.6547 5.25 11 5.25C7.1395 5.25 4 8.3895 4 12.25C4 13.8285 4.546 15.2723 5.42975 16.443C4.98803 16.766 4.62847 17.1884 4.3801 17.676C4.13173 18.1636 4.00153 18.7028 4 19.25V33.25C4 35.1803 5.56975 36.75 7.5 36.75H28.5C30.4303 36.75 32 35.1803 32 33.25V28.6335L39 32.1335V19.8835L32 23.3835V19.25ZM23.25 8.75C25.1803 8.75 26.75 10.3197 26.75 12.25C26.75 14.1803 25.1803 15.75 23.25 15.75C21.3197 15.75 19.75 14.1803 19.75 12.25C19.75 10.3197 21.3197 8.75 23.25 8.75ZM11 8.75C12.9303 8.75 14.5 10.3197 14.5 12.25C14.5 14.1803 12.9303 15.75 11 15.75C9.06975 15.75 7.5 14.1803 7.5 12.25C7.5 10.3197 9.06975 8.75 11 8.75ZM7.5 33.25V19.25H28.5L28.5035 33.25H7.5Z" fill="white"/>
</svg>
