<svg width="30" height="33" viewBox="0 0 30 33" fill="none" xmlns="http://www.w3.org/2000/svg">
<g clip-path="url(#clip0_1035_2091)">
<path d="M30 15.1805V17.8205C30 18.5492 29.7792 19.1714 29.3376 19.687C28.8961 20.2027 28.322 20.4605 27.6155 20.4605H13.2677L19.2391 26.5242C19.7554 27.0192 20.0136 27.638 20.0136 28.3805C20.0136 29.123 19.7554 29.7417 19.2391 30.2367L17.7106 31.8042C17.2079 32.313 16.5965 32.5673 15.8764 32.5673C15.1698 32.5673 14.5516 32.313 14.0217 31.8042L0.754076 18.3567C0.251359 17.848 0 17.2292 0 16.5005C0 15.7855 0.251359 15.1598 0.754076 14.6236L14.0217 1.21734C14.538 0.694844 15.1563 0.433594 15.8764 0.433594C16.5829 0.433594 17.1943 0.694844 17.7106 1.21734L19.2391 2.74359C19.7554 3.26609 20.0136 3.89172 20.0136 4.62047C20.0136 5.34922 19.7554 5.97484 19.2391 6.49734L13.2677 12.5405H27.6155C28.322 12.5405 28.8961 12.7983 29.3376 13.3139C29.7792 13.8295 30 14.4517 30 15.1805Z" fill="white"/>
</g>
<defs>
<clipPath id="clip0_1035_2091">
<rect width="30" height="33" fill="white"/>
</clipPath>
</defs>
</svg>
