<svg width="40" height="40" viewBox="0 0 40 40" fill="none" xmlns="http://www.w3.org/2000/svg">
<path d="M11.2461 6.66647H17.0194C17.3361 6.66657 17.641 6.78688 17.8724 7.00309C18.1038 7.2193 18.2446 7.5153 18.2661 7.83127C18.2877 8.14724 18.1886 8.45962 17.9887 8.7053C17.7888 8.95098 17.5032 9.11163 17.1894 9.1548L17.0194 9.16647H11.2461C10.2962 9.16632 9.38155 9.5267 8.68704 10.1748C7.99253 10.8229 7.56987 11.7104 7.50443 12.6581L7.49609 12.9165V28.7498C7.4964 29.6997 7.8572 30.6141 8.50561 31.3083C9.15403 32.0025 10.0417 32.4248 10.9894 32.4898L11.2461 32.4998H27.0794C28.0299 32.5003 28.9452 32.1399 29.6401 31.4914C30.335 30.8429 30.7577 29.9547 30.8228 29.0065L30.8311 28.7498V27.9198C30.8312 27.6031 30.9515 27.2982 31.1677 27.0668C31.3839 26.8354 31.6799 26.6947 31.9959 26.6731C32.3119 26.6515 32.6242 26.7507 32.8699 26.9505C33.1156 27.1504 33.2763 27.4361 33.3194 27.7498L33.3311 27.9198V28.7498C33.3308 30.3498 32.7169 31.8887 31.6158 33.0496C30.5148 34.2105 29.0105 34.9049 27.4128 34.9898L27.0794 34.9998H11.2461C9.64583 34.9999 8.10647 34.3862 6.94524 33.2851C5.784 32.184 5.08935 30.6795 5.00443 29.0815L4.99609 28.7481V12.9148C4.99638 11.3151 5.61005 9.77639 6.71074 8.61555C7.81142 7.45471 9.31533 6.76012 10.9128 6.6748L11.2461 6.66647ZM24.1694 10.8665V6.2498C24.1693 6.01988 24.2326 5.79437 24.3523 5.59808C24.472 5.40179 24.6436 5.24233 24.8481 5.13724C25.0526 5.03215 25.2821 4.98549 25.5114 5.00241C25.7407 5.01933 25.9609 5.09917 26.1478 5.23314L26.2844 5.34647L36.2761 14.9298C36.7428 15.3781 36.7844 16.0965 36.4028 16.5931L36.2761 16.7348L26.2844 26.3215C26.1185 26.4808 25.9119 26.5913 25.6872 26.6407C25.4626 26.6901 25.2287 26.6766 25.0112 26.6017C24.7938 26.5267 24.6012 26.3932 24.4547 26.2159C24.3083 26.0385 24.2136 25.8242 24.1811 25.5965L24.1694 25.4181V20.8765L23.5978 20.9265C19.5978 21.3431 15.7644 23.1448 12.0728 26.3598C11.2061 27.1148 9.86943 26.4015 10.0111 25.2631C11.1194 16.3965 15.7561 11.5115 23.6711 10.8981L24.1694 10.8665ZM26.6694 9.1798V12.0831C26.6694 12.4147 26.5377 12.7326 26.3033 12.967C26.0689 13.2014 25.7509 13.3331 25.4194 13.3331C18.9644 13.3331 14.9628 16.1265 13.2344 21.9281L13.1011 22.3915L13.6894 21.9965C17.4161 19.5615 21.3328 18.3331 25.4178 18.3331C25.7201 18.3332 26.0121 18.4428 26.2398 18.6417C26.4675 18.8406 26.6154 19.1152 26.6561 19.4148L26.6678 19.5831V22.4881L33.6044 15.8331L26.6694 9.1798Z" fill="white"/>
</svg>
