<svg width="41" height="40" viewBox="0 0 41 40" fill="none" xmlns="http://www.w3.org/2000/svg">
<path d="M34.2516 16.6664C34.2516 16.3928 34.1977 16.1219 34.093 15.8692C33.9883 15.6164 33.8348 15.3867 33.6414 15.1933C33.4479 14.9998 33.2183 14.8464 32.9655 14.7417C32.7127 14.637 32.4418 14.5831 32.1682 14.5831C31.8946 14.5831 31.6237 14.637 31.371 14.7417C31.1182 14.8464 30.8885 14.9998 30.6951 15.1933C30.5016 15.3867 30.3482 15.6164 30.2435 15.8692C30.1388 16.1219 30.0849 16.3928 30.0849 16.6664H34.2516ZM10.9182 16.6664C10.9182 16.1139 10.6987 15.584 10.308 15.1933C9.91735 14.8026 9.38744 14.5831 8.83491 14.5831C8.28237 14.5831 7.75247 14.8026 7.36177 15.1933C6.97107 15.584 6.75158 16.1139 6.75158 16.6664H10.9182ZM34.0282 21.4731C34.419 21.8638 34.949 22.0833 35.5016 22.0833C36.0542 22.0833 36.5841 21.8638 36.9749 21.4731C37.3657 21.0823 37.5852 20.5523 37.5852 19.9997C37.5852 19.4471 37.3657 18.9172 36.9749 18.5264L34.0282 21.4731ZM20.5016 4.99974L21.9749 3.5264C21.7814 3.33289 21.5518 3.17938 21.299 3.07465C21.0462 2.96992 20.7752 2.91602 20.5016 2.91602C20.2279 2.91602 19.957 2.96992 19.7042 3.07465C19.4514 3.17938 19.2217 3.33289 19.0282 3.5264L20.5016 4.99974ZM4.02824 18.5264C3.63749 18.9172 3.41797 19.4471 3.41797 19.9997C3.41797 20.5523 3.63749 21.0823 4.02824 21.4731C4.419 21.8638 4.94897 22.0833 5.50158 22.0833C6.05418 22.0833 6.58416 21.8638 6.97491 21.4731L4.02824 18.5264ZM12.1682 37.0831H28.8349V32.9164H12.1682V37.0831ZM34.2516 31.6664V16.6664H30.0849V31.6664H34.2516ZM10.9182 31.6664V16.6664H6.75158V31.6664H10.9182ZM36.9749 18.5264L21.9749 3.5264L19.0282 6.47307L34.0282 21.4731L36.9749 18.5264ZM19.0282 3.5264L4.02824 18.5264L6.97491 21.4731L21.9749 6.47307L19.0282 3.5264ZM28.8349 37.0831C30.2715 37.0831 31.6492 36.5124 32.6651 35.4966C33.6809 34.4808 34.2516 33.103 34.2516 31.6664H30.0849C30.0849 31.9979 29.9532 32.3159 29.7188 32.5503C29.4844 32.7847 29.1664 32.9164 28.8349 32.9164V37.0831ZM12.1682 32.9164C11.8367 32.9164 11.5188 32.7847 11.2844 32.5503C11.0499 32.3159 10.9182 31.9979 10.9182 31.6664H6.75158C6.75158 33.103 7.32226 34.4808 8.33808 35.4966C9.3539 36.5124 10.7317 37.0831 12.1682 37.0831V32.9164Z" fill="white"/>
</svg>
