<svg width="40" height="40" viewBox="0 0 40 40" fill="none" xmlns="http://www.w3.org/2000/svg">
<path d="M27.8125 4.375C24.6734 4.375 21.8875 5.61406 20 7.74375C18.1125 5.61406 15.3266 4.375 12.1875 4.375C9.45347 4.37831 6.83237 5.46586 4.89912 7.39912C2.96586 9.33237 1.87831 11.9535 1.875 14.6875C1.875 25.9906 18.4078 35.0219 19.1109 35.4016C19.3842 35.5487 19.6897 35.6257 20 35.6257C20.3103 35.6257 20.6158 35.5487 20.8891 35.4016C21.5922 35.0219 38.125 25.9906 38.125 14.6875C38.1217 11.9535 37.0341 9.33237 35.1009 7.39912C33.1676 5.46586 30.5465 4.37831 27.8125 4.375ZM26.9547 26.6187C24.7785 28.4654 22.4523 30.1274 20 31.5875C17.5477 30.1274 15.2215 28.4654 13.0453 26.6187C9.65937 23.7141 5.625 19.2844 5.625 14.6875C5.625 12.947 6.3164 11.2778 7.54711 10.0471C8.77782 8.8164 10.447 8.125 12.1875 8.125C14.9688 8.125 17.2969 9.59375 18.2641 11.9594C18.4048 12.3042 18.6451 12.5993 18.9543 12.8071C19.2635 13.0148 19.6275 13.1258 20 13.1258C20.3725 13.1258 20.7365 13.0148 21.0457 12.8071C21.3549 12.5993 21.5952 12.3042 21.7359 11.9594C22.7031 9.59375 25.0312 8.125 27.8125 8.125C29.553 8.125 31.2222 8.8164 32.4529 10.0471C33.6836 11.2778 34.375 12.947 34.375 14.6875C34.375 19.2844 30.3406 23.7141 26.9547 26.6187Z" fill="#D9D9D9"/>
</svg>
