<svg width="40" height="40" viewBox="0 0 40 40" fill="none" xmlns="http://www.w3.org/2000/svg">
<path d="M36.6391 17.355L14.1266 3.58466C13.6544 3.29685 13.1144 3.13945 12.5616 3.12854C12.0088 3.11763 11.463 3.25359 10.9798 3.52254C10.4967 3.7915 10.0936 4.18383 9.8117 4.65948C9.52975 5.13512 9.37906 5.67706 9.375 6.22998V33.7706C9.37906 34.3235 9.52975 34.8655 9.8117 35.3411C10.0936 35.8168 10.4967 36.2091 10.9798 36.478C11.463 36.747 12.0088 36.883 12.5616 36.872C13.1144 36.8611 13.6544 36.7037 14.1266 36.4159L36.6391 22.6456C37.093 22.3693 37.4682 21.9808 37.7286 21.5175C37.9889 21.0542 38.1257 20.5317 38.1257 20.0003C38.1257 19.4689 37.9889 18.9464 37.7286 18.4831C37.4682 18.0198 37.093 17.6313 36.6391 17.355ZM13.125 32.6331V7.36748L33.775 20.0003L13.125 32.6331Z" fill="white"/>
</svg>
