<svg width="55" height="51" viewBox="0 0 55 51" fill="none" xmlns="http://www.w3.org/2000/svg">
<g filter="url(#filter0_d_1035_2105)">
<path d="M28.1931 9C28.455 9.00158 28.7133 9.06259 28.9489 9.17857C29.2177 9.33945 29.4327 9.57873 29.5659 9.86532C29.6991 10.1519 29.7445 10.4726 29.696 10.7857L29.696 16.7677L39.214 9.37499C39.4667 9.17178 39.7708 9.04548 40.0913 9.01071C40.4117 8.97595 40.7353 9.03415 41.0245 9.17857C41.3186 9.32707 41.566 9.55636 41.7384 9.84042C41.9108 10.1245 42.0014 10.4519 42 10.7857V32.2137C42.0014 32.5474 41.9108 32.8749 41.7384 33.1589C41.566 33.443 41.3186 33.6723 41.0245 33.8208C40.7355 33.9663 40.4117 34.025 40.0911 33.9903C39.7704 33.9555 39.4662 33.8285 39.214 33.6243L29.696 26.2406V32.2137C29.7426 32.5254 29.6964 32.8441 29.5632 33.1289C29.4301 33.4137 29.2162 33.6515 28.9489 33.8118C28.66 33.9573 28.3362 34.0161 28.0156 33.9813C27.6949 33.9465 27.3907 33.8196 27.1385 33.6154L13.6744 22.9014C13.4643 22.7344 13.2944 22.521 13.1776 22.2773C13.0607 22.0337 13 21.7662 13 21.4952C13 21.2242 13.0607 20.9567 13.1776 20.7131C13.2944 20.4694 13.4643 20.256 13.6744 20.089L27.1385 9.37499C27.4405 9.13679 27.8108 9.00513 28.1931 9Z" fill="white"/>
</g>
<defs>
<filter id="filter0_d_1035_2105" x="0.9" y="0.9" width="53.2" height="49.2" filterUnits="userSpaceOnUse" color-interpolation-filters="sRGB">
<feFlood flood-opacity="0" result="BackgroundImageFix"/>
<feColorMatrix in="SourceAlpha" type="matrix" values="0 0 0 0 0 0 0 0 0 0 0 0 0 0 0 0 0 0 127 0" result="hardAlpha"/>
<feOffset dy="4"/>
<feGaussianBlur stdDeviation="6.05"/>
<feComposite in2="hardAlpha" operator="out"/>
<feColorMatrix type="matrix" values="0 0 0 0 0 0 0 0 0 0 0 0 0 0 0 0 0 0 0.25 0"/>
<feBlend mode="normal" in2="BackgroundImageFix" result="effect1_dropShadow_1035_2105"/>
<feBlend mode="normal" in="SourceGraphic" in2="effect1_dropShadow_1035_2105" result="shape"/>
</filter>
</defs>
</svg>
