<svg width="41" height="40" viewBox="0 0 41 40" fill="none" xmlns="http://www.w3.org/2000/svg">
<path d="M20.5 25C23.2614 25 25.5 22.7614 25.5 20C25.5 17.2386 23.2614 15 20.5 15C17.7386 15 15.5 17.2386 15.5 20C15.5 22.7614 17.7386 25 20.5 25Z" stroke="white" stroke-width="4"/>
<path d="M6.60046 17.733C7.3888 18.2263 7.89546 19.0697 7.89546 19.9997C7.89546 20.9297 7.3888 21.773 6.60046 22.2663C6.06546 22.6047 5.7188 22.873 5.4738 23.193C5.20728 23.5404 5.01182 23.9369 4.89858 24.3598C4.78533 24.7828 4.75652 25.2239 4.8138 25.658C4.90046 26.3147 5.2888 26.988 6.0638 28.333C6.84213 29.678 7.23046 30.3497 7.75546 30.7547C8.10286 31.0212 8.49936 31.2167 8.92231 31.3299C9.34526 31.4431 9.78638 31.472 10.2205 31.4147C10.6205 31.3613 11.0255 31.198 11.5855 30.9013C11.9862 30.682 12.4362 30.5682 12.893 30.5705C13.3499 30.5728 13.7986 30.6913 14.1971 30.9147C15.0021 31.3813 15.4805 32.2397 15.5138 33.1697C15.5371 33.803 15.5971 34.2363 15.7521 34.608C15.9197 35.0127 16.1653 35.3804 16.475 35.6901C16.7847 35.9998 17.1524 36.2455 17.5571 36.413C18.1688 36.6663 18.9455 36.6663 20.4988 36.6663C22.0521 36.6663 22.8288 36.6663 23.4405 36.413C23.8452 36.2455 24.2129 35.9998 24.5226 35.6901C24.8323 35.3804 25.0779 35.0127 25.2455 34.608C25.3988 34.2363 25.4605 33.803 25.4838 33.1697C25.5171 32.2397 25.9955 31.3797 26.8005 30.9147C27.199 30.6913 27.6477 30.5728 28.1046 30.5705C28.5614 30.5682 29.0114 30.682 29.4121 30.9013C29.9721 31.198 30.3788 31.3613 30.7788 31.4147C31.6549 31.5299 32.541 31.2925 33.2421 30.7547C33.7671 30.3513 34.1555 29.678 34.9321 28.333C35.2788 27.733 35.5471 27.268 35.7471 26.878M34.3971 22.268C34.0069 22.0308 33.6834 21.6984 33.4569 21.3019C33.2303 20.9055 33.1083 20.4579 33.1021 20.0013C33.1021 19.0697 33.6088 18.2263 34.3971 17.7313C34.9321 17.3947 35.2771 17.1263 35.5238 16.8063C35.7903 16.4589 35.9858 16.0625 36.099 15.6395C36.2123 15.2165 36.2411 14.7754 36.1838 14.3413C36.0971 13.6847 35.7088 13.0113 34.9338 11.6663C34.1555 10.3213 33.7671 9.64967 33.2421 9.24467C32.8947 8.97816 32.4982 8.7827 32.0753 8.66945C31.6523 8.55621 31.2112 8.5274 30.7771 8.58467C30.3771 8.63801 29.9721 8.80134 29.4105 9.09801C29.0099 9.31703 28.5603 9.43071 28.1037 9.42838C27.6472 9.42605 27.1988 9.30778 26.8005 9.08467C26.4079 8.85118 26.0811 8.52174 25.8508 8.12729C25.6205 7.73284 25.4942 7.28632 25.4838 6.82967C25.4605 6.19634 25.4005 5.76301 25.2455 5.39134C25.0779 4.98664 24.8323 4.61893 24.5226 4.30921C24.2129 3.9995 23.8452 3.75386 23.4405 3.58634C22.8288 3.33301 22.0521 3.33301 20.4988 3.33301C18.9455 3.33301 18.1688 3.33301 17.5571 3.58634C17.1524 3.75386 16.7847 3.9995 16.475 4.30921C16.1653 4.61893 15.9197 4.98664 15.7521 5.39134C15.5988 5.76301 15.5371 6.19634 15.5138 6.82967C15.5034 7.28632 15.3771 7.73284 15.1468 8.12729C14.9165 8.52174 14.5897 8.85118 14.1971 9.08467C13.7986 9.30808 13.3499 9.42651 12.893 9.42884C12.4362 9.43117 11.9862 9.31733 11.5855 9.09801C11.0255 8.80134 10.6188 8.63801 10.2188 8.58467C9.34266 8.46946 8.45663 8.70685 7.75546 9.24467C7.23213 9.64967 6.84213 10.3213 6.06546 11.6663C5.7188 12.2663 5.45046 12.7313 5.25046 13.1213" stroke="white" stroke-width="4" stroke-linecap="round"/>
</svg>
