<svg width="40" height="40" viewBox="0 0 40 40" fill="none" xmlns="http://www.w3.org/2000/svg">
<path d="M30.0013 16.667H23.3346V10.0003C23.3346 9.11627 22.9834 8.26842 22.3583 7.6433C21.7332 7.01818 20.8854 6.66699 20.0013 6.66699C19.1172 6.66699 18.2694 7.01818 17.6443 7.6433C17.0192 8.26842 16.668 9.11627 16.668 10.0003L16.7863 16.667H10.0013C9.11725 16.667 8.2694 17.0182 7.64428 17.6433C7.01916 18.2684 6.66797 19.1163 6.66797 20.0003C6.66797 20.8844 7.01916 21.7322 7.64428 22.3573C8.2694 22.9825 9.11725 23.3337 10.0013 23.3337L16.7863 23.2153L16.668 30.0003C16.668 30.8844 17.0192 31.7322 17.6443 32.3573C18.2694 32.9825 19.1172 33.3337 20.0013 33.3337C20.8854 33.3337 21.7332 32.9825 22.3583 32.3573C22.9834 31.7322 23.3346 30.8844 23.3346 30.0003V23.2153L30.0013 23.3337C30.8854 23.3337 31.7332 22.9825 32.3583 22.3573C32.9834 21.7322 33.3346 20.8844 33.3346 20.0003C33.3346 19.1163 32.9834 18.2684 32.3583 17.6433C31.7332 17.0182 30.8854 16.667 30.0013 16.667Z" fill="white"/>
</svg>
