<svg width="57" height="56" viewBox="0 0 57 56" fill="none" xmlns="http://www.w3.org/2000/svg">
<path fill-rule="evenodd" clip-rule="evenodd" d="M28.5013 4.66699C41.3883 4.66699 51.8347 15.1133 51.8347 28.0003C51.8429 33.3854 49.9806 38.6062 46.566 42.7703L46.6127 42.8217L46.3047 43.083C44.1165 45.6712 41.3897 47.7504 38.3147 49.1755C35.2396 50.6006 31.8905 51.3371 28.5013 51.3337C21.618 51.3337 15.4347 48.354 11.1647 43.6173L10.698 43.0807L10.39 42.824L10.4367 42.768C7.02243 38.6046 5.16011 33.3846 5.16799 28.0003C5.16799 15.1133 15.6143 4.66699 28.5013 4.66699ZM28.5013 39.667C24.1613 39.667 20.239 41.0483 17.3177 42.9477C20.5433 45.368 24.4686 46.6734 28.5013 46.667C32.534 46.6734 36.4594 45.368 39.685 42.9477C36.3469 40.8086 32.466 39.6702 28.5013 39.667ZM28.5013 9.33366C24.9886 9.33356 21.547 10.3247 18.5723 12.193C15.5977 14.0614 13.2105 16.7313 11.6854 19.8957C10.1602 23.0601 9.55887 26.5906 9.95051 30.0815C10.3422 33.5724 11.7109 36.8819 13.8993 39.6297C17.6817 36.916 22.843 35.0003 28.5013 35.0003C34.1597 35.0003 39.321 36.916 43.1033 39.6297C45.2918 36.8819 46.6605 33.5724 47.0521 30.0815C47.4438 26.5906 46.8425 23.0601 45.3173 19.8957C43.7921 16.7313 41.405 14.0614 38.4303 12.193C35.4556 10.3247 32.0141 9.33356 28.5013 9.33366ZM28.5013 14.0003C30.9767 14.0003 33.3507 14.9837 35.101 16.734C36.8513 18.4843 37.8347 20.8583 37.8347 23.3337C37.8347 25.809 36.8513 28.183 35.101 29.9333C33.3507 31.6837 30.9767 32.667 28.5013 32.667C26.026 32.667 23.652 31.6837 21.9017 29.9333C20.1513 28.183 19.168 25.809 19.168 23.3337C19.168 20.8583 20.1513 18.4843 21.9017 16.734C23.652 14.9837 26.026 14.0003 28.5013 14.0003ZM28.5013 18.667C27.2637 18.667 26.0767 19.1587 25.2015 20.0338C24.3263 20.909 23.8347 22.096 23.8347 23.3337C23.8347 24.5713 24.3263 25.7583 25.2015 26.6335C26.0767 27.5087 27.2637 28.0003 28.5013 28.0003C29.739 28.0003 30.926 27.5087 31.8012 26.6335C32.6763 25.7583 33.168 24.5713 33.168 23.3337C33.168 22.096 32.6763 20.909 31.8012 20.0338C30.926 19.1587 29.739 18.667 28.5013 18.667Z" fill="white"/>
</svg>
