<svg width="41" height="40" viewBox="0 0 41 40" fill="none" xmlns="http://www.w3.org/2000/svg">
<path d="M0.5 1.76871C0.5 0.791878 1.29188 0 2.26871 0H9.34354C10.3204 0 11.1122 0.791877 11.1122 1.76871V8.84354C11.1122 9.82037 10.3204 10.6122 9.34354 10.6122H2.26871C1.29188 10.6122 0.5 9.82037 0.5 8.84354V1.76871Z" fill="white"/>
<path d="M0.5 16.4626C0.5 15.4858 1.29188 14.6939 2.26871 14.6939H9.34354C10.3204 14.6939 11.1122 15.4858 11.1122 16.4626V23.5374C11.1122 24.5142 10.3204 25.3061 9.34354 25.3061H2.26871C1.29188 25.3061 0.5 24.5142 0.5 23.5374V16.4626Z" fill="white"/>
<path d="M0.5 31.1565C0.5 30.1796 1.29188 29.3878 2.26871 29.3878H9.34354C10.3204 29.3878 11.1122 30.1796 11.1122 31.1565V38.2313C11.1122 39.2081 10.3204 40 9.34354 40H2.26871C1.29188 40 0.5 39.2081 0.5 38.2313V31.1565Z" fill="white"/>
<path d="M15.1939 1.76871C15.1939 0.791878 15.9858 0 16.9626 0H24.0374C25.0142 0 25.8061 0.791877 25.8061 1.76871V8.84354C25.8061 9.82037 25.0142 10.6122 24.0374 10.6122H16.9626C15.9858 10.6122 15.1939 9.82037 15.1939 8.84354V1.76871Z" fill="white"/>
<path d="M15.1939 16.4626C15.1939 15.4858 15.9858 14.6939 16.9626 14.6939H24.0374C25.0142 14.6939 25.8061 15.4858 25.8061 16.4626V23.5374C25.8061 24.5142 25.0142 25.3061 24.0374 25.3061H16.9626C15.9858 25.3061 15.1939 24.5142 15.1939 23.5374V16.4626Z" fill="white"/>
<path d="M15.1939 31.1565C15.1939 30.1796 15.9858 29.3878 16.9626 29.3878H24.0374C25.0142 29.3878 25.8061 30.1796 25.8061 31.1565V38.2313C25.8061 39.2081 25.0142 40 24.0374 40H16.9626C15.9858 40 15.1939 39.2081 15.1939 38.2313V31.1565Z" fill="white"/>
<path d="M29.8878 1.76871C29.8878 0.791878 30.6796 0 31.6565 0H38.7313C39.7081 0 40.5 0.791877 40.5 1.76871V8.84354C40.5 9.82037 39.7081 10.6122 38.7313 10.6122H31.6565C30.6796 10.6122 29.8878 9.82037 29.8878 8.84354V1.76871Z" fill="white"/>
<path d="M29.8878 16.4626C29.8878 15.4858 30.6796 14.6939 31.6565 14.6939H38.7313C39.7081 14.6939 40.5 15.4858 40.5 16.4626V23.5374C40.5 24.5142 39.7081 25.3061 38.7313 25.3061H31.6565C30.6796 25.3061 29.8878 24.5142 29.8878 23.5374V16.4626Z" fill="white"/>
<path d="M29.8878 31.1565C29.8878 30.1796 30.6796 29.3878 31.6565 29.3878H38.7313C39.7081 29.3878 40.5 30.1796 40.5 31.1565V38.2313C40.5 39.2081 39.7081 40 38.7313 40H31.6565C30.6796 40 29.8878 39.2081 29.8878 38.2313V31.1565Z" fill="white"/>
</svg>
