<svg width="90" height="90" viewBox="0 0 90 90" fill="none" xmlns="http://www.w3.org/2000/svg">
<path d="M33.75 41.25C37.7282 41.25 41.5436 39.6696 44.3566 36.8566C47.1696 34.0436 48.75 30.2282 48.75 26.25C48.75 22.2718 47.1696 18.4564 44.3566 15.6434C41.5436 12.8304 37.7282 11.25 33.75 11.25C29.7718 11.25 25.9564 12.8304 23.1434 15.6434C20.3304 18.4564 18.75 22.2718 18.75 26.25C18.75 30.2282 20.3304 34.0436 23.1434 36.8566C25.9564 39.6696 29.7718 41.25 33.75 41.25Z" stroke="white" stroke-width="5" stroke-linecap="round" stroke-linejoin="round"/>
<path d="M7.5 67.4996C7.50007 62.5725 8.88686 57.7448 11.5018 53.5688C14.1167 49.3928 17.8541 46.037 22.2866 43.8854C26.7191 41.7337 31.6677 40.8729 36.5664 41.4015C41.4651 41.9302 46.1161 43.8268 49.9875 46.8746M63.75 48.7496H71.25M80.115 62.6509L81.225 70.1509C81.3829 71.2169 81.3092 72.3044 81.0089 73.3394C80.7086 74.3744 80.1888 75.3325 79.4849 76.1485C78.781 76.9645 77.9096 77.6192 76.9298 78.0681C75.9501 78.5169 74.8852 78.7494 73.8075 78.7496H61.1925C60.1149 78.7494 59.0499 78.5169 58.0702 78.0681C57.0905 77.6192 56.219 76.9645 55.5151 76.1485C54.8112 75.3325 54.2914 74.3744 53.9911 73.3394C53.6908 72.3044 53.6171 71.2169 53.775 70.1509L54.885 62.6509C55.1485 60.8718 56.0425 59.2467 57.404 58.0717C58.7656 56.8966 60.504 56.25 62.3025 56.2496H72.6975C74.496 56.25 76.2344 56.8966 77.596 58.0717C78.9575 59.2467 79.8515 60.8718 80.115 62.6509Z" stroke="white" stroke-width="5" stroke-linecap="round" stroke-linejoin="round"/>
</svg>
