<svg width="56" height="56" viewBox="0 0 56 56" fill="none" xmlns="http://www.w3.org/2000/svg">
<path d="M21.5385 0C9.79354 0 0 8.07692 0 18.3077C0 23.5415 2.86462 28.1034 6.93323 31.4332C6.67052 33.2025 5.95118 34.8728 4.84615 36.2794C4.39519 36.8566 3.92392 37.4177 3.43323 37.9615C3.17922 38.2292 2.95332 38.5222 2.75908 38.836C2.63631 39.0363 2.44462 39.2603 2.35631 39.7126C2.26585 40.1628 2.38862 40.9037 2.75908 41.4615L3.02831 41.9332L3.56677 42.2025C5.45138 43.1437 7.48677 42.9778 9.35631 42.4717C11.2237 41.9634 13.02 41.0932 14.7409 40.1822C16.4597 39.2732 18.0945 38.3212 19.3846 37.6255C19.5655 37.5286 19.6818 37.5049 19.8563 37.4231C23.2529 42.0926 29.4732 45.2308 36.4129 45.2308C36.4797 45.2394 36.5422 45.2308 36.6154 45.2308C39.4154 45.2308 48.4615 54.4794 53.8461 50.8178C54.0615 49.9585 49.112 47.8025 48.8643 41.3948C53.0794 38.416 55.7997 33.9855 55.7997 29.0769C55.7997 21.8142 50.036 15.8135 42.3382 13.664C39.9021 5.73785 31.4332 0 21.5385 0ZM21.5385 4.30769C31.332 4.30769 38.7692 10.8769 38.7692 18.3077C38.7692 25.7385 31.332 32.3077 21.5385 32.3077C19.7895 32.3077 18.7858 33.0228 17.3643 33.7895C15.9428 34.5542 14.3123 35.504 12.7206 36.3462C11.3422 37.0742 10.0283 37.6342 8.81785 38.0283C9.996 36.3268 11.2258 34.0889 11.4412 30.9615L11.5102 29.7489L10.5 29.0102C6.66185 26.32 4.30769 22.4495 4.30769 18.3077C4.30769 10.8769 11.7449 4.30769 21.5385 4.30769Z" fill="white"/>
</svg>
